<?xml version="1.0" encoding="iso-8859-1"?>
<!-- Generator: Adobe Illustrator 16.0.0, SVG Export Plug-In . SVG Version: 6.00 Build 0)  -->
<!DOCTYPE svg PUBLIC "-//W3C//DTD SVG 1.1//EN" "http://www.w3.org/Graphics/SVG/1.1/DTD/svg11.dtd">
<svg version="1.1" id="Capa_1" xmlns="http://www.w3.org/2000/svg" xmlns:xlink="http://www.w3.org/1999/xlink" x="0px" y="0px"
	 width="47.479px" height="47.479px" viewBox="0 0 47.479 47.479" style="enable-background:new 0 0 47.479 47.479;"
	 xml:space="preserve">
<g>
		<path d="M27.224,47.479h9.938c2.942,0,5.329-2.386,5.329-5.33V24.074c0-0.883-0.715-1.597-1.598-1.597h-13.67V47.479z"/>
		<path d="M4.987,42.148c0,2.944,2.387,5.33,5.33,5.33h9.827V22.477H6.584c-0.882,0-1.597,0.714-1.597,1.597V42.148z"/>
		<path d="M1.667,18.777c0,0.882,0.715,1.597,1.597,1.597h16.881v-8.962H6.997c-2.943,0-5.33,2.386-5.33,5.33V18.777z"/>
		<path d="M27.224,11.413v8.961h16.99c0.882,0,1.598-0.715,1.598-1.597v-2.034c0-2.944-2.388-5.33-5.33-5.33H27.224z"/>
		<path d="M39.394,7.714C39.394,3.18,36.909,0,33.026,0c-2.084,0-5.101,0.908-8.979,5.007c-3.926-4.096-7.139-4.994-9.22-4.994
			c-3.883,0-6.632,3.167-6.632,7.701c0,0.882,0.715,1.597,1.597,1.597h28.004C38.678,9.311,39.394,8.596,39.394,7.714z
			 M11.664,6.102c0.373-1.549,1.337-2.875,3.192-2.875c1.638,0,3.629,1.104,5.693,2.875H11.664z M27.565,6.102
			c2.063-1.77,4.053-2.875,5.689-2.875c1.855,0,2.822,1.326,3.193,2.875H27.565z"/>
	</g>
</svg>
